<svg width="151" height="39" viewBox="0 0 151 39" fill="none" xmlns="http://www.w3.org/2000/svg">
<path fill-rule="evenodd" clip-rule="evenodd" d="M28.8075 27.6022V23.6235H36.0186V33.5701H36.9703V38.6171H34.5178V35.7068H29.5396V38.6171H27.0505V33.5701H27.7826C28.5147 32.1334 28.8075 30.8809 28.8075 27.6022ZM33.4197 25.7602H31.3332V28.56C31.3332 31.3966 31.0038 32.2808 30.4547 33.5701H33.4197V25.7602Z" fill="#0B5CAD"/>
<path fill-rule="evenodd" clip-rule="evenodd" d="M2.6355 23.6238V27.0498C2.6355 28.0076 3.07475 28.5234 3.88004 28.5234C4.46571 28.5234 4.90496 28.4865 5.12459 28.3392V23.6238H7.72348V35.707H5.12459V30.3653C4.53892 30.6232 3.91665 30.7337 2.89173 30.7337C1.31775 30.7337 0 29.7022 0 27.2708V23.5869H2.6355V23.6238Z" fill="#0B5CAD"/>
<path fill-rule="evenodd" clip-rule="evenodd" d="M16.6914 23.6235V25.7602H14.0193V35.67H11.4204V25.7602H8.74829V23.6235H16.6914Z" fill="#0B5CAD"/>
<path fill-rule="evenodd" clip-rule="evenodd" d="M25.8426 27.2338V32.0966C25.8426 34.1964 24.7811 36.0384 21.743 36.0384C18.6316 36.0384 17.6433 34.1964 17.6433 32.0966V27.2338C17.6433 25.134 18.6682 23.292 21.743 23.292C24.7811 23.292 25.8426 25.134 25.8426 27.2338ZM20.352 26.9022V32.465C20.352 33.5333 20.9377 33.9017 21.743 33.9017C22.5849 33.9017 23.1339 33.607 23.1339 32.465V26.9022C23.1339 25.7602 22.6215 25.4655 21.743 25.4655C20.9743 25.4655 20.352 25.7971 20.352 26.9022Z" fill="#0B5CAD"/>
<path fill-rule="evenodd" clip-rule="evenodd" d="M40.7771 29.9233V32.5389C40.7771 33.423 41.2896 33.8651 42.1681 33.8651C43.01 33.8651 43.559 33.3862 43.559 32.5389V31.8389H46.1579V32.1705C46.1579 34.8966 44.4741 36.0018 42.1681 36.0018C39.862 36.0018 38.1782 34.9334 38.1782 32.1705V27.0867C38.1782 24.3606 39.862 23.2554 42.1681 23.2554C44.4741 23.2554 46.1579 24.3606 46.1579 27.0867V29.8864H40.7771V29.9233ZM43.559 27.934V26.7551C43.559 25.9078 43.01 25.4289 42.1681 25.4289C41.3262 25.4289 40.7771 25.871 40.7771 26.7551V27.934H43.559Z" fill="#0B5CAD"/>
<path fill-rule="evenodd" clip-rule="evenodd" d="M56.1509 23.6235V35.7068H53.552V25.7971H51.3923V30.623C51.3923 34.8964 50.2576 35.9279 48.6836 35.9279C48.098 35.9279 47.6953 35.8542 47.1829 35.7068V33.6807C47.4025 33.7175 47.5855 33.7543 47.7685 33.7543C48.7568 33.7543 48.8667 33.3491 48.8667 28.1916V23.6235H56.1509Z" fill="#0B5CAD"/>
<path fill-rule="evenodd" clip-rule="evenodd" d="M58.0909 27.3446V26.7552C58.0909 24.8395 59.7015 23.3291 61.971 23.3291C64.2038 23.3291 65.9608 24.2501 65.9608 26.4236V33.9388C65.9608 34.7493 65.9974 35.3019 66.2903 35.7071H63.545C63.3619 35.4492 63.3253 34.8598 63.3253 34.5651C62.8129 35.4861 62.1906 36.0755 60.7997 36.0755C59.0793 36.0755 57.8347 35.0072 57.8347 32.7231C57.8347 30.6233 58.7498 29.5918 60.7997 28.7076C62.0808 28.155 63.2155 27.6393 63.2155 26.6078C63.2155 25.871 62.7763 25.5395 61.971 25.5395C61.2389 25.5395 60.6166 26.0184 60.6166 27.0867V27.3446H58.0909ZM61.5317 30.5864C60.8729 31.0285 60.6532 31.7653 60.6532 32.3179C60.6532 33.2389 60.9827 33.9757 61.788 33.9757C62.5933 33.9757 63.2521 33.4599 63.2521 32.3916V29.4444L61.5317 30.5864Z" fill="#0B5CAD"/>
<path fill-rule="evenodd" clip-rule="evenodd" d="M74.9287 23.6235V25.7602H72.2566V35.67H69.6211V25.7602H66.9856V23.6235H74.9287Z" fill="#0B5CAD"/>
<path fill-rule="evenodd" clip-rule="evenodd" d="M78.5891 28.2284H80.2729C81.9567 28.2284 83.7869 29.4073 83.7869 31.9492C83.7869 34.4911 81.9567 35.7068 80.2729 35.7068H75.9902V23.6235H78.5891V28.2284ZM78.5891 33.5333H79.431C80.2729 33.5333 81.0416 33.2754 81.0416 31.9124C81.0416 30.7335 80.3095 30.3283 79.431 30.3283H78.5891V33.5333Z" fill="#0B5CAD"/>
<path fill-rule="evenodd" clip-rule="evenodd" d="M88.3259 28.0813L90.815 23.5869H93.6701L90.815 28.4497L93.6701 35.6702H90.632L88.9482 30.9916L88.3259 32.2441V35.6702H85.6172V23.5869H88.3259V28.0813Z" fill="#A4A3A8"/>
<path fill-rule="evenodd" clip-rule="evenodd" d="M102.638 27.2338V32.0966C102.638 34.1964 101.54 36.0384 98.3921 36.0384C95.1709 36.0384 94.1094 34.1964 94.1094 32.0966V27.2338C94.1094 25.134 95.1709 23.292 98.3921 23.292C101.54 23.292 102.638 25.134 102.638 27.2338ZM96.9279 26.8654V32.4281C96.9279 33.4965 97.5502 33.8649 98.3921 33.8649C99.2706 33.8649 99.8196 33.5702 99.8196 32.4281V26.8654C99.8196 25.7234 99.2706 25.4287 98.3921 25.4287C97.5502 25.4287 96.9279 25.7602 96.9279 26.8654Z" fill="#A4A3A8"/>
<path fill-rule="evenodd" clip-rule="evenodd" d="M106.884 28.1918H109.483V23.5869H112.192V35.6702H109.483V30.3653H106.884V35.6702H104.176V23.5869H106.884V28.1918Z" fill="#A4A3A8"/>
<path fill-rule="evenodd" clip-rule="evenodd" d="M118.781 27.9708V26.6077C118.781 25.871 118.305 25.5394 117.719 25.5394C117.06 25.5394 116.584 25.9078 116.584 26.7919V32.5757C116.584 33.423 117.06 33.8282 117.719 33.8282C118.305 33.8282 118.781 33.4599 118.781 32.7599V31.0653H121.489V32.9073C121.489 35.0439 119.476 36.1123 117.719 36.1123C115.376 36.1123 113.766 34.7492 113.766 32.6862V26.6814C113.766 24.6553 115.376 23.2554 117.719 23.2554C119.476 23.2554 121.489 24.2869 121.489 26.4604V27.9708H118.781Z" fill="#A4A3A8"/>
<path fill-rule="evenodd" clip-rule="evenodd" d="M122.954 27.3075V26.718C122.954 24.8024 124.637 23.292 126.98 23.292C129.323 23.292 131.153 24.213 131.153 26.3865V33.9017C131.153 34.7122 131.189 35.2648 131.519 35.67H128.664C128.481 35.4121 128.444 34.8227 128.444 34.528C127.932 35.449 127.273 36.0384 125.809 36.0384C124.015 36.0384 122.734 34.97 122.734 32.686C122.734 30.5862 123.722 29.5547 125.809 28.6705C127.126 28.1179 128.334 27.6022 128.334 26.5707C128.334 25.8339 127.858 25.5023 127.017 25.5023C126.248 25.5023 125.589 25.9813 125.589 27.0496V27.3075H122.954ZM126.541 30.5862C125.845 31.0282 125.626 31.765 125.626 32.3176C125.626 33.2386 125.955 33.9754 126.834 33.9754C127.675 33.9754 128.371 33.4596 128.371 32.3913V29.4442L126.541 30.5862Z" fill="#A4A3A8"/>
<path fill-rule="evenodd" clip-rule="evenodd" d="M141.622 23.5869V35.6702H138.913V25.7236H136.68V30.5864C136.68 34.8597 135.472 35.8912 133.862 35.8912C133.276 35.8912 132.837 35.8176 132.288 35.6702V33.6809C132.544 33.7177 132.69 33.7546 132.873 33.7546C133.898 33.7546 134.008 33.3493 134.008 28.1918V23.5869H141.622Z" fill="#A4A3A8"/>
<path fill-rule="evenodd" clip-rule="evenodd" d="M150.882 23.5869V25.7604H148.1V35.6702H145.392V25.7604H142.61V23.5869H150.882Z" fill="#A4A3A8"/>
<path fill-rule="evenodd" clip-rule="evenodd" d="M81.5174 23.5868V22.8131H82.1031C82.1763 22.8131 82.2861 22.8131 82.3959 22.8868C82.4691 22.9605 82.5057 23.0342 82.5057 23.1447C82.5057 23.2552 82.4691 23.3657 82.3959 23.4394C82.2861 23.5499 82.1763 23.5868 82.0665 23.5868H81.5174ZM81.188 22.4816V24.8393H81.5174V23.8078H82.1031L82.5423 24.8393H82.9084L82.4325 23.7341C82.5057 23.6973 82.6155 23.6604 82.6887 23.5868C82.7986 23.4394 82.8718 23.2552 82.8718 23.1078C82.8718 22.9237 82.7986 22.7395 82.6155 22.5921C82.5423 22.5553 82.3959 22.4447 82.1031 22.4447H81.188V22.4816ZM80.0898 23.6604C80.0898 24.8025 80.9317 25.7234 82.0299 25.7234C83.0914 25.7234 83.9699 24.8025 83.9699 23.6604C83.9699 22.5184 83.0914 21.6343 82.0299 21.6343C80.9317 21.6343 80.0898 22.5184 80.0898 23.6604ZM83.6771 23.6604C83.6771 24.6183 82.945 25.4287 81.9933 25.4287C81.0782 25.4287 80.3461 24.6551 80.3461 23.6604C80.3461 22.7026 81.0782 21.929 81.9933 21.929C82.945 21.929 83.6771 22.7026 83.6771 23.6604Z" fill="#0B5CAD"/>
<path fill-rule="evenodd" clip-rule="evenodd" d="M57.2856 16.2192H56.0776V10.6196H60.5067V16.2192H59.2622V11.7248H57.2856V16.2192Z" fill="#A4A3A8"/>
<path fill-rule="evenodd" clip-rule="evenodd" d="M65.1554 15.0404C64.8626 16.1824 63.9108 16.3666 63.1788 16.3666C62.6663 16.3666 61.1655 16.2561 61.1655 14.1931C61.1655 12.7932 62.044 12.0195 63.2886 12.0195C65.1188 12.0195 65.2286 13.7878 65.2286 14.2667V14.4878H62.3369C62.3369 14.893 62.5199 15.5561 63.252 15.5561C63.5814 15.5561 63.9108 15.4087 64.0207 15.0404H65.1554ZM64.0573 13.8247C64.0573 12.9405 63.5448 12.83 63.252 12.83C63.1055 12.83 62.4467 12.83 62.3369 13.8247H64.0573Z" fill="#A4A3A8"/>
<path fill-rule="evenodd" clip-rule="evenodd" d="M66.8394 12.1669V12.6458H66.876C67.3152 12.0564 67.8277 12.0195 68.0839 12.0195C69.1454 12.0195 69.8043 12.8668 69.8043 14.1931C69.8043 15.4824 69.1454 16.3666 68.0839 16.3666C67.9375 16.3666 67.3152 16.3297 66.9492 15.814V17.6928H65.8145V12.1669H66.8394ZM67.7545 15.5561C68.4134 15.5561 68.633 14.893 68.633 14.1931C68.633 13.051 68.0839 12.83 67.7545 12.83C67.425 12.83 66.876 13.051 66.876 14.1931C66.876 14.893 67.0956 15.5561 67.7545 15.5561Z" fill="#A4A3A8"/>
<path fill-rule="evenodd" clip-rule="evenodd" d="M72.6228 12.1665C72.9888 12.1665 73.8673 12.1665 73.8673 13.1612C73.8673 13.7138 73.5013 14.0453 73.0986 14.119V14.1558C73.7209 14.3032 74.0137 14.5611 74.0137 15.2242C74.0137 16.0715 73.4646 16.2557 72.6228 16.2557H70.3899V12.2033H72.6228V12.1665ZM71.488 13.7506H72.0737C72.2567 13.7506 72.696 13.7506 72.696 13.3822C72.696 13.0506 72.4031 12.977 72.1103 12.977H71.488V13.7506ZM71.488 15.4084H72.1835C72.7326 15.4084 72.8058 15.1873 72.8058 15.0031C72.8058 14.7453 72.696 14.5242 72.1469 14.5242H71.4514V15.4084H71.488Z" fill="#A4A3A8"/>
<path fill-rule="evenodd" clip-rule="evenodd" d="M75.6608 12.1665V13.6032H76.3563C76.7224 13.6032 77.9669 13.5664 77.9669 14.9663C77.9669 16.1083 77.125 16.2188 76.5759 16.2188H74.4895V12.1665H75.6608ZM75.6608 15.4084H76.1733C76.4295 15.4084 76.8322 15.3715 76.8322 14.9295C76.8322 14.4137 76.3563 14.4137 76.1367 14.4137H75.6608V15.4084ZM79.5409 12.1665V16.2188H78.4061V12.1665H79.5409Z" fill="#A4A3A8"/>
<path fill-rule="evenodd" clip-rule="evenodd" d="M82.9451 12.1669H84.153V16.2192H83.0183V13.6036L81.4809 16.2192H80.2729V12.1669H81.4077V14.7825L82.9451 12.1669ZM81.5541 10.6196C81.5541 11.1354 82.1032 11.1722 82.213 11.1722C82.5058 11.1722 82.8718 11.0249 82.8352 10.6196H83.6771C83.6039 11.0985 83.3111 11.7248 82.213 11.7248C81.1148 11.7248 80.7854 11.0985 80.7488 10.6196H81.5541Z" fill="#A4A3A8"/>
<path fill-rule="evenodd" clip-rule="evenodd" d="M91.8032 15.114L91.73 17.4717H90.6319V16.2192H87.1179V17.4717H86.0197L85.9465 15.114H86.459C87.0447 14.1562 87.2643 13.0879 87.2643 11.909V10.6196H91.0345V15.114H91.8032ZM88.4356 11.7248V12.3879C88.4356 13.6404 88.2526 14.4141 87.85 15.1509H89.8632V11.7248H88.4356Z" fill="#A4A3A8"/>
<path fill-rule="evenodd" clip-rule="evenodd" d="M91.9863 14.1931C91.9863 12.609 93.0112 12.0195 94.0362 12.0195C95.2075 12.0195 96.086 12.7195 96.086 14.1931C96.086 15.6666 95.2075 16.3666 94.0362 16.3666C92.8648 16.3666 91.9863 15.6666 91.9863 14.1931ZM94.9513 14.1931C94.9513 12.9037 94.329 12.83 94.0728 12.83C93.8165 12.83 93.1943 12.9037 93.1943 14.1931C93.1943 14.7088 93.2675 15.5561 94.0728 15.5561C94.8781 15.5561 94.9513 14.7088 94.9513 14.1931Z" fill="#A4A3A8"/>
<path fill-rule="evenodd" clip-rule="evenodd" d="M97.8064 13.419H97.7698L97.8064 13.6401V16.2188H96.6716V12.1665H98.1724L99.1973 15.0031L100.222 12.1665H101.723V16.2188H100.588V13.6401L100.625 13.419H100.588L99.5634 16.2188H98.8313L97.8064 13.419Z" fill="#A4A3A8"/>
<path fill-rule="evenodd" clip-rule="evenodd" d="M107.14 10.6196H108.605L106.518 13.1984L108.714 16.2192H107.214L105.383 13.4931H105.347V16.2192H104.139V10.6196H105.347V12.9773H105.383L107.14 10.6196Z" fill="#A4A3A8"/>
<path fill-rule="evenodd" clip-rule="evenodd" d="M108.714 14.1931C108.714 12.609 109.739 12.0195 110.764 12.0195C111.936 12.0195 112.814 12.7195 112.814 14.1931C112.814 15.6666 111.936 16.3666 110.764 16.3666C109.629 16.3666 108.714 15.6666 108.714 14.1931ZM111.679 14.1931C111.679 12.9037 111.057 12.83 110.801 12.83C110.545 12.83 109.922 12.9037 109.922 14.1931C109.922 14.7088 109.995 15.5561 110.801 15.5561C111.606 15.5561 111.679 14.7088 111.679 14.1931Z" fill="#A4A3A8"/>
<path fill-rule="evenodd" clip-rule="evenodd" d="M114.534 16.2188H113.4V12.1665H114.534V13.6769H115.889V12.1665H117.023V16.2188H115.889V14.4874H114.534V16.2188Z" fill="#A4A3A8"/>
<path fill-rule="evenodd" clip-rule="evenodd" d="M121.489 14.672C121.453 15.2982 121.05 16.3666 119.623 16.3666C118.378 16.3666 117.609 15.5929 117.609 14.1931C117.609 13.2352 118.012 12.0195 119.696 12.0195C120.977 12.0195 121.38 12.8668 121.453 13.6036H120.355C120.281 12.9405 119.952 12.83 119.623 12.83C119.366 12.83 118.744 12.9037 118.744 14.1194C118.744 15.4824 119.366 15.5561 119.586 15.5561C120.172 15.5561 120.318 14.9667 120.318 14.672H121.489Z" fill="#A4A3A8"/>
<path fill-rule="evenodd" clip-rule="evenodd" d="M122.075 13.456C122.111 12.0561 123.429 11.9824 123.868 11.9824C125.552 11.9824 125.589 13.0139 125.589 13.4928L125.552 15.3348C125.552 15.7769 125.552 16.0347 125.772 16.1084V16.1821H124.601L124.491 15.7769H124.454C124.161 16.1821 123.649 16.3295 123.21 16.3295C122.002 16.3295 121.892 15.4822 121.892 15.1506C121.892 14.2296 122.624 14.0086 123.283 13.8981C124.125 13.7507 124.418 13.8244 124.418 13.456C124.418 13.4192 124.418 13.3823 124.418 13.3455C124.418 12.8297 123.942 12.7929 123.795 12.7929C123.612 12.7929 123.1 12.8297 123.1 13.456H122.075ZM124.491 14.3033C124.161 14.4507 124.198 14.4507 123.759 14.5243C123.539 14.5612 123.1 14.6349 123.1 15.1138C123.1 15.4822 123.466 15.5927 123.685 15.5927C123.978 15.5927 124.527 15.4085 124.527 14.598V14.3033H124.491Z" fill="#A4A3A8"/>
<path fill-rule="evenodd" clip-rule="evenodd" d="M125.992 15.4084C126.065 15.4084 126.101 15.4084 126.175 15.4084C126.651 15.4084 126.834 15.1505 126.834 13.898L126.87 12.1665H130.091V16.2188H128.957V12.977H127.932V13.898C127.895 16.0346 127.309 16.2925 126.394 16.2925C126.248 16.2925 126.101 16.2925 125.955 16.2557V15.4084H125.992Z" fill="#A4A3A8"/>
<path fill-rule="evenodd" clip-rule="evenodd" d="M130.494 12.977V12.1665H134.118V12.977H132.873V16.2188H131.738V12.977H130.494Z" fill="#A4A3A8"/>
<path fill-rule="evenodd" clip-rule="evenodd" d="M137.156 12.1665H138.364V16.2188H137.229V13.5664L135.692 16.2188H134.484V12.1665H135.619V14.7821L137.156 12.1665Z" fill="#A4A3A8"/>
<path fill-rule="evenodd" clip-rule="evenodd" d="M140.231 16.2188H139.096V12.1665H140.231V13.6769H141.585V12.1665H142.72V16.2188H141.585V14.4874H140.231V16.2188Z" fill="#A4A3A8"/>
<path fill-rule="evenodd" clip-rule="evenodd" d="M144.587 16.2188H143.489V12.1665H146.344V12.977H144.587V16.2188Z" fill="#A4A3A8"/>
<path fill-rule="evenodd" clip-rule="evenodd" d="M146.783 13.456C146.819 12.0561 148.137 11.9824 148.576 11.9824C150.26 11.9824 150.297 13.0139 150.297 13.4928L150.26 15.3348C150.26 15.7769 150.26 16.0347 150.48 16.1084V16.1821H149.309L149.199 15.7769H149.162C148.869 16.1821 148.357 16.3295 147.918 16.3295C146.71 16.3295 146.6 15.4822 146.6 15.1506C146.6 14.2296 147.332 14.0086 147.991 13.8981C148.833 13.7507 149.126 13.8244 149.126 13.456C149.126 13.4192 149.126 13.3823 149.126 13.3455C149.126 12.8297 148.65 12.7929 148.503 12.7929C148.32 12.7929 147.808 12.8297 147.808 13.456H146.783ZM149.162 14.3033C148.833 14.4507 148.869 14.4507 148.43 14.5243C148.21 14.5612 147.771 14.6349 147.771 15.1138C147.771 15.4822 148.137 15.5927 148.357 15.5927C148.65 15.5927 149.199 15.4085 149.199 14.598V14.3033H149.162Z" fill="#A4A3A8"/>
<path d="M32.8341 6.08817C34.1884 6.08817 35.3231 4.90931 35.3231 3.50941C35.3231 2.07268 34.225 0.930664 32.8341 0.930664C31.4797 0.930664 30.345 2.10952 30.345 3.50941C30.3816 4.90931 31.4797 6.08817 32.8341 6.08817Z" fill="#0B5CAD"/>
<path d="M47.8782 13.7505L45.7552 11.6139C45.499 12.0191 45.1695 12.3507 44.8035 12.6454C44.1446 10.0298 42.1314 7.96678 39.5691 7.19315C39.02 7.00896 38.4344 6.93528 37.8121 6.89844C37.7755 6.89844 37.7755 6.89844 37.7389 6.89844C37.6657 6.89844 37.5925 6.89844 37.4826 6.89844C35.7622 6.89844 34.1151 7.59838 32.9071 8.81408L30.6377 11.0981L29.5029 12.2033L31.626 14.34L35.0302 10.9139C35.689 10.2508 36.6041 9.88242 37.5559 9.88242C37.7023 9.88242 37.8487 9.88242 37.9951 9.91926C38.0683 9.91926 38.1781 9.9561 38.2513 9.9561C40.1181 10.3245 41.5823 11.7981 41.9484 13.7137C41.9117 13.7137 41.8385 13.7137 41.8019 13.7137C40.9966 13.7137 40.228 13.4927 39.5691 13.1243C39.4227 13.0506 39.2762 12.9401 39.1298 12.8664C39.0932 12.8296 39.0566 12.8296 39.02 12.7927C38.7638 12.5717 38.5076 12.3507 38.2879 12.0928C38.2513 12.0559 38.2513 12.0191 38.2147 11.9823C38.1049 11.8717 38.0317 11.7244 37.9219 11.6139C37.7755 11.3928 37.6291 11.1718 37.5192 10.9139L35.323 13.1243C35.4694 13.3453 35.6158 13.5664 35.7622 13.7505C35.9087 13.9347 36.0551 14.1189 36.2015 14.2663C36.2381 14.3031 36.2381 14.3031 36.2747 14.34C36.4211 14.4873 36.6041 14.6347 36.7506 14.782C36.7872 14.8189 36.8238 14.8189 36.8238 14.8557C37.0068 15.0031 37.1532 15.1504 37.3362 15.261C37.3362 15.261 37.3362 15.261 37.3728 15.2978C38.5442 16.1451 39.9717 16.624 41.5091 16.6977C41.1797 17.324 40.7404 17.8397 40.1914 18.2818C40.1547 18.3186 40.1547 18.3186 40.1181 18.3555C40.0449 18.4291 39.9351 18.466 39.8619 18.5397C39.8253 18.5397 39.8253 18.5765 39.7887 18.5765C39.6789 18.6502 39.5691 18.687 39.4959 18.7607C39.4593 18.7607 39.4593 18.7975 39.4227 18.7975C39.3129 18.8712 39.203 18.908 39.0566 18.9449C39.0566 18.9449 39.0566 18.9449 39.02 18.9449C38.7272 19.0554 38.3978 19.1659 38.0683 19.2028C37.9585 19.2028 37.8487 19.2396 37.7389 19.2396C37.5925 19.2396 37.4826 19.2764 37.3362 19.2764C37.2264 19.2764 37.1166 19.2764 37.0434 19.2764C36.9336 19.2764 36.7872 19.2396 36.6774 19.2396C36.2747 19.1659 35.9087 19.0922 35.5792 18.9449L33.383 21.1552C33.7856 21.4131 34.2249 21.6342 34.6641 21.7815C35.1034 21.9289 35.5426 22.0762 35.9819 22.1499H36.0185C36.2015 22.1867 36.3845 22.2236 36.5675 22.2236H36.6041H36.6407C36.8604 22.2604 37.1166 22.2604 37.3362 22.2604C37.8121 22.2604 38.3245 22.2236 38.7638 22.1131C38.7638 22.1131 38.7638 22.1131 38.8004 22.1131C39.02 22.0762 39.2396 22.0025 39.4593 21.9657H39.4959C39.8253 21.8552 40.1548 21.7447 40.4476 21.6342C40.5574 21.5973 40.6306 21.5605 40.7404 21.5236C40.7404 21.5236 40.7404 21.5236 40.777 21.5236C42.8635 20.4921 44.4008 18.5028 44.8767 16.1451C46.048 15.5557 47.0729 14.782 47.8782 13.7505Z" fill="#0B5CAD"/>
<path d="M35.7989 16.9189L33.6759 14.7823L30.2717 18.2083C29.6128 18.8714 28.6977 19.2398 27.746 19.2398C27.5996 19.2398 27.4531 19.2398 27.3067 19.203C27.2335 19.203 27.1237 19.1661 27.0505 19.1661C25.1837 18.7977 23.7195 17.3242 23.3535 15.4085C23.3901 15.4085 23.4633 15.4085 23.4999 15.4085C24.3052 15.4085 25.0739 15.6296 25.7328 15.998C25.8792 16.0716 26.0256 16.1822 26.172 16.2558C26.2086 16.2927 26.2452 16.2927 26.2818 16.3295C26.538 16.5506 26.7943 16.7716 27.0139 17.0295C27.0505 17.0663 27.0505 17.1031 27.0871 17.14C27.1969 17.2505 27.2701 17.3979 27.3799 17.5084C27.5264 17.7294 27.6728 17.9504 27.7826 18.2083L29.9788 15.998C29.8324 15.7769 29.686 15.5559 29.5396 15.3717C29.3932 15.1875 29.2468 15.0033 29.1003 14.8559C29.0637 14.8191 29.0637 14.8191 29.0271 14.7823C28.8807 14.6349 28.6977 14.4876 28.5513 14.3402C28.5147 14.3034 28.4781 14.3034 28.4781 14.2665C28.295 14.1192 28.1486 13.9718 27.9656 13.8613C27.9656 13.8613 27.9656 13.8613 27.929 13.8244C26.7577 12.9771 25.3301 12.4982 23.7927 12.4246C24.1222 11.7983 24.5614 11.2825 25.1105 10.8405C25.1471 10.8036 25.1471 10.8036 25.1837 10.7668C25.2569 10.6931 25.3667 10.6563 25.4399 10.5826C25.4765 10.5826 25.4765 10.5457 25.5131 10.5457C25.6229 10.4721 25.7328 10.4352 25.806 10.3615C25.8426 10.3615 25.8426 10.3247 25.8792 10.3247C25.989 10.251 26.0988 10.2142 26.2452 10.1774C26.2452 10.1774 26.2452 10.1774 26.2818 10.1774C26.5746 10.0668 26.9041 9.95632 27.2335 9.91948C27.3433 9.91948 27.4531 9.88264 27.563 9.88264C27.7094 9.88264 27.8192 9.8458 27.9656 9.8458C28.0754 9.8458 28.1852 9.8458 28.2584 9.8458C28.3683 9.8458 28.5147 9.88264 28.6245 9.88264C28.9905 9.95632 29.3932 10.03 29.7226 10.1774L31.9189 7.967C31.5162 7.70912 31.077 7.48808 30.6377 7.34073C30.1985 7.19337 29.7592 7.04601 29.32 6.97233H29.2834C29.1003 6.93549 28.9173 6.89866 28.7343 6.89866H28.6977H28.6611C28.4415 6.86182 28.1852 6.86182 27.9656 6.86182C27.4898 6.86182 26.9773 6.89865 26.538 7.00917C26.538 7.00917 26.538 7.00917 26.5014 7.00917C26.2818 7.04601 26.0622 7.11969 25.8426 7.15653H25.806C25.4765 7.26705 25.1471 7.37757 24.8543 7.48808C24.7444 7.52492 24.6712 7.56176 24.5614 7.5986C24.5614 7.5986 24.5614 7.5986 24.5248 7.5986C22.4384 8.6301 20.901 10.6194 20.4251 12.9771C19.2538 13.4929 18.2289 14.3034 17.4602 15.298L19.5832 17.4347C19.8395 17.0295 20.1689 16.6979 20.535 16.4032C21.1938 19.0188 23.2071 21.0818 25.7694 21.8554C26.3184 22.0396 26.9041 22.1133 27.5264 22.1501C27.563 22.1501 27.563 22.1501 27.5996 22.1501C27.6728 22.1501 27.746 22.1501 27.8558 22.1501C29.5762 22.1501 31.2234 21.4502 32.4313 20.2345L34.7008 17.9504L35.7989 16.9189Z" fill="#0B5CAD"/>
</svg>
